<svg width="1600" height="900" viewBox="0 0 1600 900" fill="none" xmlns="http://www.w3.org/2000/svg">
<g clip-path="url(#clip0_15_57)">
<rect width="1600" height="900" fill="#EFEFEF"/>
<circle cx="456" cy="353" r="50" fill="#D9D9D9"/>
<path d="M1021.5 605.14C784.5 819.64 941.5 613.14 616 582.64C465.5 568.538 462.5 361.64 -29.5 403.64C-259.1 382.04 -139.167 432.974 -50.5 461.14C-77.6667 574.807 -133.3 804.74 -138.5 815.14C-143.7 825.54 -179 1068.14 -196 1188.14C166 1208.97 920.1 1252.24 1040.5 1258.64C1160.9 1265.04 1583 1112.97 1779 1036.14C1800.33 879.64 1820 496.84 1728 217.64C1724.87 208.14 1678 180.64 1458.5 195.14C1239 209.64 1258.5 390.64 1021.5 605.14Z" fill="#D9D9D9"/>
</g>
<defs>
<clipPath id="clip0_15_57">
<rect width="1600" height="900" fill="white"/>
</clipPath>
</defs>
</svg>
